<svg width="1920" height="1080" viewBox="0 0 1920 1080" fill="none" xmlns="http://www.w3.org/2000/svg">
<rect width="1920" height="1080" fill="#1A3343"/>
<path fill-rule="evenodd" clip-rule="evenodd" d="M-194 441L-158.771 393C-123.542 345 -53.0833 249 17.375 191C87.8333 134 158.292 115 228.75 153C299.208 191 369.667 287 440.125 307C510.583 326 581.042 268 651.5 220C721.958 172 792.417 134 862.875 124C933.333 115 1003.79 134 1074.25 143C1144.71 153 1215.17 153 1285.62 172C1356.08 191 1426.54 230 1497 220C1567.46 211 1637.92 153 1708.37 134C1778.83 115 1849.29 134 1919.75 105C1990.21 76 2060.67 -1 2131.12 28C2201.58 57 2272.04 191 2342.5 268C2412.96 345 2483.42 364 2553.87 287C2624.33 211 2694.79 38 2765.25 -39C2835.71 -116 2906.17 -97 2976.62 -1C3047.08 95 3117.54 268 3152.77 355L3188 441V-135H3152.77C3117.54 -135 3047.08 -135 2976.62 -135C2906.17 -135 2835.71 -135 2765.25 -135C2694.79 -135 2624.33 -135 2553.87 -135C2483.42 -135 2412.96 -135 2342.5 -135C2272.04 -135 2201.58 -135 2131.12 -135C2060.67 -135 1990.21 -135 1919.75 -135C1849.29 -135 1778.83 -135 1708.37 -135C1637.92 -135 1567.46 -135 1497 -135C1426.54 -135 1356.08 -135 1285.62 -135C1215.17 -135 1144.71 -135 1074.25 -135C1003.79 -135 933.333 -135 862.875 -135C792.417 -135 721.958 -135 651.5 -135C581.042 -135 510.583 -135 440.125 -135C369.667 -135 299.208 -135 228.75 -135C158.292 -135 87.8333 -135 17.375 -135C-53.0833 -135 -123.542 -135 -158.771 -135H-194V441Z" fill="#0099FF"/>
<path fill-rule="evenodd" clip-rule="evenodd" d="M2811 287.752L2794.03 324.596C2777.06 361.44 2743.12 435.128 2711.61 422.846C2677.67 410.565 2643.73 312.314 2609.79 312.314C2575.86 312.314 2544.34 410.565 2510.4 398.284C2476.47 386.002 2442.53 263.189 2408.59 226.345C2377.07 189.501 2343.14 238.626 2309.2 250.908C2275.26 263.189 2243.75 238.626 2209.81 189.501C2175.87 140.376 2141.93 66.6881 2107.99 91.2507C2076.48 115.813 2042.54 238.626 2008.6 349.158C1974.66 459.69 1940.72 557.941 1909.21 582.503C1875.27 607.066 1841.33 557.941 1807.4 508.815C1773.46 459.69 1741.94 410.565 1708 386.002C1674.07 361.44 1640.13 361.44 1606.19 312.314C1574.68 263.189 1540.74 164.939 1506.8 115.813C1472.86 66.688 1438.92 66.688 1407.41 140.376C1373.47 214.064 1339.53 361.44 1305.59 459.69C1274.08 557.941 1240.14 607.066 1206.2 557.941C1172.26 508.815 1138.33 361.44 1106.81 373.721C1072.87 386.002 1038.93 557.941 1005 619.347C971.057 680.754 939.543 631.628 905.605 607.066C871.667 582.503 837.728 582.503 803.79 570.222C772.276 557.941 738.337 533.378 704.399 471.971C670.461 410.565 636.523 312.314 605.008 263.189C571.07 214.064 537.132 214.064 503.193 214.064C469.255 214.064 437.741 214.064 403.803 226.345C369.864 238.626 335.926 263.189 304.412 300.033C270.473 336.877 236.535 386.002 202.597 361.439C168.658 336.877 137.144 238.626 103.206 263.189C69.2675 287.752 35.3292 435.127 1.39084 447.409C-30.1233 459.69 -64.0617 336.877 -81.0308 275.47L-98 214.064L-98 -7.00003L-81.0308 -7.00003C-64.0616 -7.00003 -30.1233 -7.00003 1.39088 -7.00003C35.3292 -7.00002 69.2675 -7.00002 103.206 -7.00002C137.144 -7.00001 168.658 -7.00001 202.597 -7.00001C236.535 -7 270.473 -7 304.412 -7C335.926 -7 369.864 -6.99999 403.803 -6.99999C437.741 -6.99999 469.255 -6.99998 503.193 -6.99998C537.132 -6.99998 571.07 -6.99998 605.008 -6.99997C636.523 -6.99997 670.461 -6.99997 704.399 -6.99996C738.338 -6.99996 772.276 -6.99996 803.79 -6.99996C837.728 -6.99995 871.667 -6.99995 905.605 -6.99995C939.543 -6.99994 971.058 -6.99994 1005 -6.99994C1038.93 -6.99993 1072.87 -6.99993 1106.81 -6.99993C1138.33 -6.99993 1172.26 -6.99992 1206.2 -6.99992C1240.14 -6.99992 1274.08 -6.99991 1305.59 -6.99991C1339.53 -6.99991 1373.47 -6.99991 1407.41 -6.9999C1438.92 -6.9999 1472.86 -6.9999 1506.8 -6.99989C1540.74 -6.99989 1574.68 -6.99989 1606.19 -6.99989C1640.13 -6.99988 1674.07 -6.99988 1708 -6.99988C1741.94 -6.99987 1773.46 -6.99987 1807.4 -6.99987C1841.33 -6.99986 1875.27 -6.99986 1909.21 -6.99986C1940.72 -6.99986 1974.66 -6.99985 2008.6 -6.99985C2042.54 -6.99985 2076.48 -6.99984 2107.99 -6.99984C2141.93 -6.99984 2175.87 -6.99984 2209.81 -6.99983C2243.75 -6.99983 2275.26 -6.99983 2309.2 -6.99982C2343.14 -6.99982 2377.07 -6.99982 2408.59 -6.99981C2442.53 -6.99981 2476.47 -6.99981 2510.4 -6.99981C2544.34 -6.9998 2575.86 -6.9998 2609.79 -6.9998C2643.73 -6.99979 2677.67 -6.99979 2711.61 -6.99979C2743.12 -6.99979 2777.06 -6.99978 2794.03 -6.99978L2811 -6.99978L2811 287.752Z" fill="#007FD3" fill-opacity="0.63"/>
</svg>
